<svg width="26" height="26" viewBox="0 0 26 26" fill="none" xmlns="http://www.w3.org/2000/svg">
<path d="M12 0H14V5H12V0Z" fill="white"/>
<path fill-rule="evenodd" clip-rule="evenodd" d="M13 19C16.3137 19 19 16.3137 19 13C19 9.68629 16.3137 7 13 7C9.68628 7 7 9.68629 7 13C7 16.3137 9.68628 19 13 19ZM13 17C15.2091 17 17 15.2091 17 13C17 10.7909 15.2091 9 13 9C10.7909 9 9 10.7909 9 13C9 15.2091 10.7909 17 13 17Z" fill="white"/>
<path d="M21 14H26V12H21V14Z" fill="white"/>
<path d="M14 21V26H12V21H14Z" fill="white"/>
<path d="M5 14V12H0V14H5Z" fill="white"/>
<path d="M21.4854 3.10052L22.8995 4.51474L19.364 8.05028L17.9498 6.63606L21.4854 3.10052Z" fill="white"/>
<path d="M21.4852 22.8995L22.8994 21.4853L19.3639 17.9498L17.9497 19.364L21.4852 22.8995Z" fill="white"/>
<path d="M6.63574 17.9498L8.04993 19.364L4.5144 22.8995L3.10022 21.4853L6.63574 17.9498Z" fill="white"/>
<path d="M6.6366 8.05026L8.05078 6.63605L4.51526 3.10051L3.10107 4.51472L6.6366 8.05026Z" fill="white"/>
</svg>
