<svg width="25" height="25" viewBox="0 0 25 25" fill="none" xmlns="http://www.w3.org/2000/svg">
<path d="M14.4 0H13.6V1.60001H12V2.39999H13.6V4H14.4V2.39999H16V1.60001H14.4V0Z" fill="white"/>
<path fill-rule="evenodd" clip-rule="evenodd" d="M1.53906 19.7192C2.06201 20.4267 2.65515 21.0794 3.30798 21.6668C5.61096 23.739 8.65833 25 12.0002 25C19.1799 25 25.0002 19.1797 25.0002 12C25.0002 8.65994 23.7406 5.61407 21.6705 3.31154C21.0822 2.65717 20.4283 2.06282 19.7194 1.53882C19.7053 2.42462 19.6763 3.27002 19.6306 4.07664C18.9996 15.2414 15.2035 18.978 4.07214 19.6255C3.26672 19.6723 2.42285 19.703 1.53906 19.7192ZM12.0002 23C9.94019 23 8.01245 22.4344 6.36353 21.4484C11.0249 20.9601 14.6438 19.759 17.1997 17.2128C19.7584 14.6638 20.97 11.049 21.4557 6.37495C22.4373 8.02132 23.0002 9.94485 23.0002 12C23.0002 18.0751 18.0753 23 12.0002 23Z" fill="white"/>
<path d="M2.40002 4H1.59998V5.60001H0V6.39999H1.59998V8H2.40002V6.39999H4V5.60001H2.40002V4Z" fill="white"/>
<path d="M7.59998 13H8.40002V14.6H10V15.4H8.40002V17H7.59998V15.4H6V14.6H7.59998V13Z" fill="white"/>
</svg>
