<svg width="183" height="26" viewBox="0 0 183 26" fill="none" xmlns="http://www.w3.org/2000/svg">
<path d="M180 0L163 25.0115H165.554L182.5 0H180Z" fill="black"/>
<path d="M105.398 10.707H84.9141V16.8594H109.5V14.8086C109.5 13.1992 108.934 12.0508 107.801 11.3633C107.672 11.2823 107.537 11.2087 107.396 11.1425C107.295 11.0946 107.19 11.0505 107.083 11.0104C106.88 10.9346 106.666 10.8726 106.441 10.8242C106.246 10.7852 106.047 10.7539 105.844 10.7305C105.736 10.7191 105.629 10.7118 105.521 10.7087L105.398 10.707Z" fill="black"/>
<path fill-rule="evenodd" clip-rule="evenodd" d="M175 0H74V25H157L175 0ZM109.5 23V20.9492H84.9141V23H80.8125V6.60547H105.398C107.406 6.60547 109.184 7.22266 110.73 8.45703C112.637 9.96484 113.59 12.082 113.59 14.8086V23H109.5ZM132.926 23V10.707H120.633V23H116.531V6.60547H145.219C147.219 6.60547 148.996 7.22266 150.551 8.45703C152.457 9.96484 153.41 12.082 153.41 14.8086V23H149.309V14.8086C149.309 13.1992 148.746 12.0508 147.621 11.3633C147.223 11.1133 146.766 10.9336 146.25 10.8242C146.062 10.7852 145.867 10.7539 145.664 10.7305C145.508 10.7148 145.359 10.707 145.219 10.707H137.016V23H132.926Z" fill="black"/>
<path d="M0 5.60547V9.70703H28.6875V13.8086C28.6875 15.4102 28.1211 16.5586 26.9883 17.2539C26.5898 17.4961 26.1328 17.6719 25.6172 17.7812C25.4219 17.8203 25.2227 17.8516 25.0195 17.875C24.8711 17.8906 24.7227 17.8984 24.5742 17.8984H0V22H24.5859C26.5938 22 28.3711 21.3867 29.918 20.1602C31.8242 18.6445 32.7773 16.5273 32.7773 13.8086V5.60547H0Z" fill="black"/>
<path d="M39.8203 13.8086C39.8203 12.1992 40.3828 11.0508 41.5078 10.3633C41.9062 10.1133 42.3633 9.93359 42.8789 9.82422C43.0742 9.78516 43.2734 9.75391 43.4766 9.73047C43.6328 9.71484 43.7852 9.70703 43.9336 9.70703H68.4961V5.60547H43.9102C41.9102 5.60547 40.1328 6.22266 38.5781 7.45703C36.6719 8.96484 35.7188 11.082 35.7188 13.8086V22H68.4961V17.8984H39.8203V13.8086Z" fill="black"/>
<path d="M0 24H74V25H0V24Z" fill="black"/>
</svg>
