<svg xmlns="http://www.w3.org/2000/svg" width="183" height="26" fill="none" viewBox="0 0 183 26"><path fill="#000" d="m180 0-17 25.012h2.554L182.5 0H180Zm-74.602 10.707H84.914v6.152H109.5v-2.05c0-1.61-.566-2.758-1.699-3.446a3.788 3.788 0 0 0-.718-.353 4.596 4.596 0 0 0-.642-.186 7.313 7.313 0 0 0-.597-.094 4.22 4.22 0 0 0-.323-.021l-.123-.002Z"/><path fill="#000" fill-rule="evenodd" d="M175 0H74v25h83l18-25Zm-65.5 23v-2.05H84.914V23h-4.102V6.605h24.586c2.008 0 3.786.618 5.332 1.852 1.907 1.508 2.86 3.625 2.86 6.352V23h-4.09Zm23.426 0V10.707h-12.293V23h-4.102V6.605h28.688c2 0 3.777.618 5.332 1.852 1.906 1.508 2.859 3.625 2.859 6.352V23h-4.101v-8.191c0-1.61-.563-2.758-1.688-3.446a4.186 4.186 0 0 0-1.371-.539 6.607 6.607 0 0 0-.586-.094 4.461 4.461 0 0 0-.445-.023h-8.203V23h-4.09Z" clip-rule="evenodd"/><path fill="#000" d="M0 5.605v4.102h28.688v4.102c0 1.601-.567 2.75-1.7 3.445a4.358 4.358 0 0 1-1.37.527c-.196.04-.395.07-.598.094a4.256 4.256 0 0 1-.446.023H0V22h24.586c2.008 0 3.785-.613 5.332-1.84 1.906-1.515 2.86-3.633 2.86-6.351V5.605H0Zm39.82 8.204c0-1.61.563-2.758 1.688-3.446a4.18 4.18 0 0 1 1.37-.539c.196-.039.395-.07.599-.094.156-.015.308-.023.457-.023h24.562V5.605H43.91c-2 0-3.777.618-5.332 1.852-1.906 1.508-2.86 3.625-2.86 6.352V22h32.778v-4.102H39.82v-4.09ZM0 24h74v1H0v-1Z"/></svg>