<svg xmlns="http://www.w3.org/2000/svg" width="25" height="25" fill="none" viewBox="0 0 25 25"><path fill="#000" d="M14.4 0h-.8v1.6H12v.8h1.6V4h.8V2.4H16v-.8h-1.6V0Z"/><path fill="#000" fill-rule="evenodd" d="M1.54 19.72c.522.707 1.115 1.36 1.768 1.947A12.952 12.952 0 0 0 12 25c7.18 0 13-5.82 13-13 0-3.34-1.26-6.386-3.33-8.688a13.077 13.077 0 0 0-1.95-1.773 62.55 62.55 0 0 1-.09 2.538C19 15.24 15.205 18.978 4.073 19.625c-.805.047-1.65.078-2.533.094ZM12 23c-2.06 0-3.988-.566-5.636-1.552 4.66-.488 8.28-1.689 10.836-4.235 2.558-2.55 3.77-6.164 4.256-10.838A10.948 10.948 0 0 1 23 12c0 6.075-4.925 11-11 11Z" clip-rule="evenodd"/><path fill="#000" d="M2.4 4h-.8v1.6H0v.8h1.6V8h.8V6.4H4v-.8H2.4V4Zm5.2 9h.8v1.6H10v.8H8.4V17h-.8v-1.6H6v-.8h1.6V13Z"/></svg>