<svg xmlns="http://www.w3.org/2000/svg" width="26" height="26" fill="none" viewBox="0 0 26 26"><path fill="#fff" d="M12 0h2v5h-2V0Z"/><path fill="#fff" fill-rule="evenodd" d="M13 19a6 6 0 1 0 0-12 6 6 0 0 0 0 12Zm0-2a4 4 0 1 0 0-8 4 4 0 0 0 0 8Z" clip-rule="evenodd"/><path fill="#fff" d="M21 14h5v-2h-5v2Zm-7 7v5h-2v-5h2Zm-9-7v-2H0v2h5ZM21.485 3.1 22.9 4.516 19.363 8.05 17.95 6.636l3.535-3.535Zm0 19.8 1.414-1.415-3.535-3.535-1.414 1.414 3.535 3.535ZM6.636 17.95l1.414 1.414-3.536 3.535L3.1 21.485l3.536-3.535Zm.001-9.9L8.05 6.636 4.515 3.101 3.101 4.515 6.637 8.05Z"/></svg>